<svg width="421" height="424" viewBox="0 0 421 424" fill="none" xmlns="http://www.w3.org/2000/svg">
<ellipse cx="212.5" cy="229.5" rx="116.5" ry="113.5" fill="url(#paint0_linear_107_5)"/>
<path opacity="0.5" d="M210.997 342.829C274.271 342.829 325.564 292.016 325.564 229.335C325.564 166.655 274.271 115.843 210.997 115.843C147.725 115.843 96.4314 166.655 96.4314 229.335C96.4314 292.016 147.725 342.829 210.997 342.829Z" fill="url(#paint1_linear_107_5)"/>
<path d="M210.991 169.441C216.263 169.441 220.538 173.675 220.538 178.899V225.422L249.566 254.178C253.293 257.871 253.293 263.86 249.566 267.553C245.837 271.248 239.791 271.248 236.064 267.553L204.24 236.028C202.449 234.255 201.443 231.849 201.443 229.341V178.899C201.443 173.675 205.717 169.441 210.991 169.441Z" fill="url(#paint2_linear_107_5)"/>
<path fill-rule="evenodd" clip-rule="evenodd" d="M161.813 85.6132C164.608 90.0425 163.248 95.8776 158.777 98.6459L107.858 130.172C103.387 132.94 97.497 131.594 94.7025 127.164C91.9079 122.735 93.2671 116.9 97.7385 114.131L148.657 82.6056C153.128 79.8371 159.019 81.1837 161.813 85.6132Z" fill="url(#paint3_linear_107_5)"/>
<path fill-rule="evenodd" clip-rule="evenodd" d="M260.187 85.613C262.981 81.1837 268.872 79.8371 273.343 82.6056L324.261 114.131C328.733 116.9 330.092 122.735 327.298 127.164C324.503 131.594 318.613 132.94 314.141 130.172L263.223 98.6459C258.752 95.8776 257.392 90.0425 260.187 85.613Z" fill="url(#paint4_linear_107_5)"/>
<defs>
<linearGradient id="paint0_linear_107_5" x1="212.5" y1="116" x2="212.5" y2="343" gradientUnits="userSpaceOnUse">
<stop stop-color="#8A8A8A"/>
<stop offset="1" stop-color="#242424"/>
</linearGradient>
<linearGradient id="paint1_linear_107_5" x1="210.998" y1="115.843" x2="210.998" y2="342.829" gradientUnits="userSpaceOnUse">
<stop stop-color="white"/>
<stop offset="1" stop-color="#F0F0F0"/>
</linearGradient>
<linearGradient id="paint2_linear_107_5" x1="226.902" y1="169.441" x2="226.902" y2="270.324" gradientUnits="userSpaceOnUse">
<stop stop-color="white"/>
<stop offset="1" stop-color="#F0F0F0"/>
</linearGradient>
<linearGradient id="paint3_linear_107_5" x1="128.258" y1="81.1667" x2="128.258" y2="131.611" gradientUnits="userSpaceOnUse">
<stop stop-color="white"/>
<stop offset="1" stop-color="#F0F0F0"/>
</linearGradient>
<linearGradient id="paint4_linear_107_5" x1="293.742" y1="81.1667" x2="293.742" y2="131.611" gradientUnits="userSpaceOnUse">
<stop stop-color="white"/>
<stop offset="1" stop-color="#F0F0F0"/>
</linearGradient>
</defs>
</svg>
