<svg width="421" height="424" viewBox="0 0 421 424" fill="none" xmlns="http://www.w3.org/2000/svg">
<path d="M317.667 105.333H104.333C89.6058 105.333 77.6667 117.272 77.6667 132V292C77.6667 306.728 89.6058 318.667 104.333 318.667H317.667C332.394 318.667 344.333 306.728 344.333 292V132C344.333 117.272 332.394 105.333 317.667 105.333Z" fill="url(#paint0_linear_106_15)"/>
<path d="M334.333 111.333C329.624 107.493 323.744 105.376 317.667 105.333H104.333C98.2564 105.376 92.3762 107.493 87.6666 111.333C86.1413 112.594 84.9155 114.178 84.0782 115.97C83.241 117.763 82.8132 119.72 82.826 121.698C82.8387 123.677 83.2917 125.628 84.152 127.41C85.0123 129.192 86.2585 130.76 87.8 132L194.467 215.867C199.175 219.587 205 221.611 211 221.611C217 221.611 222.825 219.587 227.533 215.867L334.2 132C335.757 130.751 337.014 129.168 337.878 127.368C338.741 125.567 339.19 123.596 339.19 121.6C339.19 119.604 338.741 117.633 337.878 115.833C337.014 114.032 335.757 112.449 334.2 111.2L334.333 111.333Z" fill="#D8D8D8"/>
<defs>
<linearGradient id="paint0_linear_106_15" x1="211" y1="105.333" x2="211" y2="318.667" gradientUnits="userSpaceOnUse">
<stop stop-color="white"/>
<stop offset="1" stop-color="#EAEAEA"/>
</linearGradient>
</defs>
</svg>
