<svg width="421" height="424" viewBox="0 0 421 424" fill="none" xmlns="http://www.w3.org/2000/svg">
<rect x="47.6667" y="120.667" width="320" height="192" rx="96" fill="url(#paint0_linear_106_2)"/>
<path d="M260.667 245C269.871 245 277.333 237.538 277.333 228.333C277.333 219.129 269.871 211.667 260.667 211.667C251.462 211.667 244 219.129 244 228.333C244 237.538 251.462 245 260.667 245Z" fill="#969696"/>
<path d="M294 211.667C303.205 211.667 310.667 204.205 310.667 195C310.667 185.795 303.205 178.333 294 178.333C284.795 178.333 277.333 185.795 277.333 195C277.333 204.205 284.795 211.667 294 211.667Z" fill="#969696"/>
<path d="M177.333 178.333C177.333 169.129 169.871 161.667 160.667 161.667V161.667C151.462 161.667 144 169.129 144 178.333V178.333C144 187.538 136.538 195 127.333 195V195C118.129 195 110.667 202.462 110.667 211.667V211.667C110.667 220.871 118.129 228.333 127.333 228.333V228.333C136.538 228.333 144 235.795 144 245V245C144 254.205 151.462 261.667 160.667 261.667V261.667C169.871 261.667 177.333 254.205 177.333 245V245C177.333 235.795 184.795 228.333 194 228.333V228.333C203.205 228.333 210.667 220.871 210.667 211.667V211.667C210.667 202.462 203.205 195 194 195V195C184.795 195 177.333 187.538 177.333 178.333V178.333Z" fill="#969696"/>
<g filter="url(#filter0_d_106_2)">
<path d="M260.667 95H160.667C96.5333 95 44.2667 147.2 44 211.467V212.1C44.2333 276.217 96.5167 328.333 160.667 328.333H260.667C324.9 328.333 377.25 276.067 377.333 211.767V211.5C377.083 147.233 324.833 95 260.667 95ZM260.667 295H160.667C138.599 294.974 117.441 286.206 101.823 270.616C86.2052 255.026 77.3994 233.884 77.3333 211.817C77.3833 165.783 114.783 128.333 160.667 128.333H260.667C306.567 128.333 343.933 165.783 344 211.767C343.943 233.841 335.141 254.994 319.523 270.594C303.904 286.193 282.741 294.969 260.667 295Z" fill="white"/>
</g>
<defs>
<filter id="filter0_d_106_2" x="40" y="95" width="341.333" height="242.333" filterUnits="userSpaceOnUse" color-interpolation-filters="sRGB">
<feFlood flood-opacity="0" result="BackgroundImageFix"/>
<feColorMatrix in="SourceAlpha" type="matrix" values="0 0 0 0 0 0 0 0 0 0 0 0 0 0 0 0 0 0 127 0" result="hardAlpha"/>
<feOffset dy="5"/>
<feGaussianBlur stdDeviation="2"/>
<feComposite in2="hardAlpha" operator="out"/>
<feColorMatrix type="matrix" values="0 0 0 0 0 0 0 0 0 0 0 0 0 0 0 0 0 0 0.25 0"/>
<feBlend mode="normal" in2="BackgroundImageFix" result="effect1_dropShadow_106_2"/>
<feBlend mode="normal" in="SourceGraphic" in2="effect1_dropShadow_106_2" result="shape"/>
</filter>
<linearGradient id="paint0_linear_106_2" x1="495.667" y1="167.667" x2="-66.3332" y2="281.667" gradientUnits="userSpaceOnUse">
<stop stop-color="#D9D9D9"/>
<stop offset="1" stop-color="#FDFDFD"/>
</linearGradient>
</defs>
</svg>
